<svg xmlns="http://www.w3.org/2000/svg" viewBox="0 0 298.8 298.8"><defs><style>.cls-1{fill:none}.cls-2{clip-path:url(#clip-path)}.cls-3{fill:#fff}.cls-4,.cls-6{fill:#010101}.cls-5{fill:#186734}.cls-6{stroke:#010101;stroke-miterlimit:10}.cls-7{fill:#ba2025}</style><clipPath id="clip-path"><circle id="Ellipse_17" data-name="Ellipse 17" class="cls-1" cx="149.4" cy="149.4" r="149.4" transform="translate(51.96 1.62)"/></clipPath></defs><g id="kenya" transform="translate(-51.96 -1.62)"><g id="Layer_1" data-name="Layer 1"><g id="Group_15" data-name="Group 15" class="cls-2"><path id="Path_62" data-name="Path 62" class="cls-3" d="M.13 0h408.74v306.55H.13z"/><path id="Path_63" data-name="Path 63" class="cls-4" d="M.13 0h408.74v92H.13z"/><path id="Path_64" data-name="Path 64" class="cls-5" d="M.13 214.59h408.74v92H.13z"/><g id="b"><path id="a" class="cls-6" d="M149.7 244.29l3.45 1.91L242.62 91c5.18-1.15 8-6.13 10.93-11.11A112.349 112.349 0 0 0 266.38 46a111.279 111.279 0 0 0-22.8 28.17c-2.87 5-5.75 10-4.4 15.13z"/><path id="a-2" data-name="a" class="cls-3" d="M149.7 244.29l3.45 1.91L242.62 91c5.18-1.15 8-6.13 10.93-11.11A112.349 112.349 0 0 0 266.38 46a111.279 111.279 0 0 0-22.8 28.17c-2.87 5-5.75 10-4.4 15.13z"/></g><g id="b-2" data-name="b"><path id="a-3" data-name="a" class="cls-6" d="M259.29 244.29l-3.45 1.91L166.37 91c-5.17-1.15-8.05-6.13-10.92-11.11A112.27 112.27 0 0 1 142.61 46a111.28 111.28 0 0 1 22.8 28.17c2.88 5 5.75 10 4.41 15.13z"/><path id="a-4" data-name="a" class="cls-3" d="M259.29 244.29l-3.45 1.91L166.37 91c-5.17-1.15-8.05-6.13-10.92-11.11A112.27 112.27 0 0 1 142.61 46a111.28 111.28 0 0 1 22.8 28.17c2.88 5 5.75 10 4.41 15.13z"/></g><path id="Path_65" data-name="Path 65" class="cls-7" d="M409.19 107.29H240.9c-5.75-15.32-24.91-46-36.4-46s-30.66 30.66-36.41 46H0v92h168.09c5.75 15.33 24.91 46 36.41 46s30.65-30.65 36.4-46h168.29z"/><path id="c" class="cls-4" d="M240.9 199.26c5.75-15.33 9.58-30.66 9.58-46s-3.83-30.66-9.58-46c-5.75 15.33-9.58 30.66-9.58 46s3.83 30.65 9.58 46"/><path id="c-2" data-name="c" class="cls-4" d="M168.09 199.26c-5.74-15.33-9.58-30.66-9.58-46s3.84-30.66 9.58-46c5.75 15.33 9.58 30.66 9.58 46s-3.83 30.65-9.58 46"/><ellipse id="Ellipse_16" data-name="Ellipse 16" class="cls-3" cx="7.66" cy="11.5" rx="7.66" ry="11.5" transform="translate(196.84 141.78)"/><path id="d" class="cls-3" d="M206.41 164.39s7.67 15.33 7.67 40.23-7.67 40.24-7.67 40.24z"/><path id="d-2" data-name="d" class="cls-3" d="M202.58 142.16s-7.66-15.32-7.66-40.23 7.66-40.24 7.66-40.24z"/><path id="d-3" data-name="d" class="cls-3" d="M202.58 164.39s-7.66 15.33-7.66 40.23 7.66 40.24 7.66 40.24z"/><path id="d-4" data-name="d" class="cls-3" d="M206.41 142.16s7.67-15.32 7.67-40.23-7.67-40.24-7.67-40.24z"/></g></g></g></svg>